<?xml version="1.0" encoding="UTF-8" standalone="no"?>
<!DOCTYPE svg PUBLIC "-//W3C//DTD SVG 1.1//EN" "http://www.w3.org/Graphics/SVG/1.1/DTD/svg11.dtd">
<svg xmlns="http://www.w3.org/2000/svg" version="1.1" viewBox="0.00 0.00 626.00 417.00">
<g stroke-width="2.00" fill="none" stroke-linecap="butt">
<path stroke="#e79113" vector-effect="non-scaling-stroke" d="
  M 15.94 0.00
  Q 19.13 6.82 22.85 13.17
  C 28.76 23.25 37.40 31.71 49.31 32.70
  C 60.09 33.59 74.77 26.88 84.63 21.11
  Q 102.94 10.38 120.68 0.00"
/>
<path stroke="#e79113" vector-effect="non-scaling-stroke" d="
  M 140.87 0.00
  L 155.01 0.00"
/>
<path stroke="#e79113" vector-effect="non-scaling-stroke" d="
  M 204.93 0.00
  Q 207.33 9.35 206.34 17.14
  Q 205.07 27.07 204.11 30.37
  Q 198.52 49.60 194.10 58.36
  Q 190.19 66.11 186.52 73.95"
/>
<path stroke="#eca768" vector-effect="non-scaling-stroke" d="
  M 186.52 73.95
  L 180.54 83.91"
/>
<path stroke="#e0572b" vector-effect="non-scaling-stroke" d="
  M 180.54 83.91
  Q 181.90 76.43 184.57 69.51
  Q 185.97 65.87 188.24 53.12
  C 191.59 34.33 187.33 5.83 163.92 3.56
  Q 157.20 2.91 147.34 5.82
  C 127.42 11.72 108.80 22.96 91.55 33.34
  C 82.16 38.99 74.43 43.19 65.57 47.63
  C 51.99 54.43 39.40 56.84 26.90 46.91
  Q 22.90 43.74 20.38 40.35
  Q 8.68 24.66 0.90 4.09
  Q 0.76 3.71 0.37 3.60
  Q 0.19 3.54 0.00 3.50"
/>
<path stroke="#f0c556" vector-effect="non-scaling-stroke" d="
  M 37.15 0.00
  Q 44.78 10.10 56.12 12.11
  C 68.90 14.37 85.82 6.89 97.05 0.00"
/>
<path stroke="#f0c556" vector-effect="non-scaling-stroke" d="
  M 222.57 0.00
  Q 219.09 13.50 214.81 22.50
  Q 203.72 45.83 186.52 73.95"
/>
<path stroke="#a4cab0" vector-effect="non-scaling-stroke" d="
  M 233.57 0.00
  Q 227.14 13.36 223.20 19.70
  Q 198.12 60.01 189.91 74.90
  C 183.08 87.29 177.78 97.79 173.97 110.64
  C 169.60 125.39 169.72 144.10 185.14 152.50
  C 196.78 158.85 211.48 155.02 223.26 149.51
  Q 240.66 141.38 256.93 129.73
  Q 290.76 105.51 324.55 81.26
  Q 351.33 62.03 375.20 49.10
  Q 386.16 43.16 399.23 41.95
  C 419.32 40.10 429.83 54.11 433.30 72.26
  C 438.05 97.13 436.21 125.33 433.24 147.97
  Q 429.34 177.66 427.35 207.52
  C 426.40 221.84 426.68 234.47 428.22 247.99
  C 430.08 264.37 439.53 290.51 455.92 297.83
  C 463.95 301.42 471.72 300.60 478.64 295.35
  Q 484.57 290.84 488.99 289.44
  C 499.36 286.14 510.50 295.76 517.00 303.01
  Q 538.80 327.32 555.24 355.53
  Q 573.38 386.65 592.84 417.00"
/>
<path stroke="#f0c556" vector-effect="non-scaling-stroke" d="
  M 563.67 417.00
  Q 543.10 376.75 531.85 357.92
  Q 517.95 334.64 499.01 315.24
  C 492.12 308.19 483.39 302.05 473.08 305.20
  C 465.15 307.61 459.18 314.59 451.21 316.35
  C 432.70 320.46 419.99 300.77 414.01 286.44
  Q 410.65 278.38 409.13 267.14
  Q 405.93 243.36 408.56 217.00
  Q 410.55 196.93 412.26 183.66
  C 416.20 152.94 420.63 120.45 413.52 90.00
  C 411.41 80.95 406.01 70.68 397.93 65.72
  C 380.03 54.72 350.56 71.55 335.37 82.15
  Q 302.37 105.19 270.44 129.69
  C 255.59 141.09 240.88 151.46 225.60 161.61
  C 209.01 172.63 177.18 188.35 163.08 167.27
  C 158.77 160.81 156.73 152.23 157.50 144.51
  Q 158.20 137.48 158.30 133.58"
/>
<path stroke="#89a597" vector-effect="non-scaling-stroke" d="
  M 158.30 133.58
  L 163.59 120.78"
/>
<path stroke="#e98b6e" vector-effect="non-scaling-stroke" d="
  M 163.59 120.78
  L 180.54 83.91"
/>
<path stroke="#40abac" vector-effect="non-scaling-stroke" d="
  M 243.47 0.00
  Q 239.92 6.18 236.05 12.33
  C 228.68 24.03 222.01 35.60 215.03 47.25
  Q 204.31 65.15 196.98 84.66
  C 191.77 98.53 187.90 118.74 200.20 130.44
  C 204.87 134.89 209.79 136.91 216.48 137.25
  C 230.43 137.96 247.14 130.30 258.46 122.99
  A 0.70 0.70 0.0 0 0 257.84 121.74
  Q 255.58 122.56 255.49 121.23"
/>
<path stroke="#38939c" vector-effect="non-scaling-stroke" d="
  M 255.49 121.23
  Q 267.77 118.89 278.13 110.05"
/>
<path stroke="#987a73" vector-effect="non-scaling-stroke" d="
  M 278.13 110.05
  L 304.30 91.43"
/>
<path stroke="#9b956d" vector-effect="non-scaling-stroke" d="
  M 304.30 91.43
  L 333.86 70.64"
/>
<path stroke="#9fb45a" vector-effect="non-scaling-stroke" d="
  M 333.86 70.64
  Q 358.84 52.79 385.48 37.72
  Q 389.02 35.72 392.79 34.27
  Q 393.23 34.10 393.60 33.82
  L 397.02 31.27"
/>
<path stroke="#a4cab0" vector-effect="non-scaling-stroke" d="
  M 397.02 31.27
  L 402.88 28.90"
/>
<path stroke="#40abac" vector-effect="non-scaling-stroke" d="
  M 402.88 28.90
  Q 409.69 26.57 416.06 25.44
  C 434.65 22.14 445.45 31.71 450.85 48.59
  Q 454.26 59.21 454.75 69.76
  Q 456.35 104.33 451.30 140.35
  C 448.42 160.89 445.80 183.32 445.22 201.99
  Q 444.82 215.25 447.03 232.15
  Q 448.02 239.69 450.34 246.53
  C 455.05 260.38 462.13 275.03 476.29 280.89
  C 486.99 285.32 494.01 280.07 503.63 273.84
  C 522.01 261.93 549.49 298.37 556.97 310.74
  Q 585.00 357.11 610.00 394.27
  Q 615.69 402.73 626.00 415.89"
/>
<path stroke="#258694" vector-effect="non-scaling-stroke" d="
  M 256.93 0.00
  Q 241.84 27.26 229.75 55.41
  C 222.39 72.53 214.70 98.27 228.03 114.70
  C 235.32 123.69 244.82 123.46 255.49 121.23"
/>
<path stroke="#7d555a" vector-effect="non-scaling-stroke" d="
  M 275.12 0.00
  Q 273.74 2.24 273.34 3.28
  C 264.53 25.97 254.36 48.20 253.26 73.50
  C 252.75 85.30 256.79 100.00 267.52 106.21
  Q 272.20 108.92 278.13 110.05"
/>
<path stroke="#e0572b" vector-effect="non-scaling-stroke" d="
  M 294.78 0.00
  Q 287.61 20.94 285.56 40.00
  C 283.74 56.99 287.14 82.53 304.30 91.43"
/>
<path stroke="#e79113" vector-effect="non-scaling-stroke" d="
  M 313.46 0.00
  C 309.77 20.09 310.16 41.05 321.24 58.48
  Q 325.90 65.81 333.84 69.27
  Q 334.32 69.47 334.13 69.95
  L 333.86 70.64"
/>
<path stroke="#f0c556" vector-effect="non-scaling-stroke" d="
  M 316.88 0.00
  Q 317.02 14.37 324.36 26.60
  C 334.27 43.09 352.65 43.69 369.36 39.92
  Q 383.45 36.74 397.02 31.27"
/>
<path stroke="#a4cab0" vector-effect="non-scaling-stroke" d="
  M 338.53 0.00
  Q 349.54 11.09 364.92 12.82
  C 372.91 13.71 383.64 13.49 392.25 12.01
  Q 416.95 7.77 442.85 0.00"
/>
<path stroke="#f0c556" vector-effect="non-scaling-stroke" d="
  M 467.61 0.00
  L 469.11 0.22
  A 0.30 0.30 0.0 0 1 469.16 0.81
  C 460.40 3.68 453.01 5.74 447.15 9.95"
/>
<path stroke="#89a597" vector-effect="non-scaling-stroke" d="
  M 447.15 9.95
  Q 442.95 10.91 437.48 13.94"
/>
<path stroke="#91bda8" vector-effect="non-scaling-stroke" d="
  M 437.48 13.94
  Q 428.40 16.62 425.35 17.61
  Q 414.11 21.21 402.88 28.90"
/>
<path stroke="#9fb45a" vector-effect="non-scaling-stroke" d="
  M 414.87 0.00
  L 429.51 0.00"
/>
<path stroke="#f0c556" vector-effect="non-scaling-stroke" d="
  M 519.98 0.00
  Q 528.47 6.08 531.66 14.38
  Q 537.51 29.59 536.10 47.02
  C 534.25 69.82 529.20 90.91 523.02 113.21
  C 516.75 135.83 511.35 158.24 509.75 181.76
  C 508.62 198.35 510.58 212.98 519.58 227.10
  Q 530.31 243.92 549.46 244.06"
/>
<path stroke="#e47519" vector-effect="non-scaling-stroke" d="
  M 549.46 244.06
  L 539.56 248.56"
/>
<path stroke="#e79113" vector-effect="non-scaling-stroke" d="
  M 539.56 248.56
  Q 522.51 249.21 512.37 235.82
  C 501.78 221.85 498.20 206.82 498.61 189.00
  Q 499.15 166.02 504.59 140.26
  C 511.73 106.47 522.15 72.43 520.31 37.50
  C 519.78 27.42 517.39 15.31 510.65 7.88
  C 502.89 -0.66 490.76 -1.20 480.24 3.38"
/>
<path stroke="#e47519" vector-effect="non-scaling-stroke" d="
  M 480.24 3.38
  Q 470.83 3.60 460.53 7.58"
/>
<path stroke="#848f42" vector-effect="non-scaling-stroke" d="
  M 460.53 7.58
  L 447.15 9.95"
/>
<path stroke="#a4cab0" vector-effect="non-scaling-stroke" d="
  M 540.11 0.00
  C 550.94 12.08 552.99 28.18 551.46 43.51
  C 549.80 60.25 546.08 76.48 541.03 93.61
  Q 535.14 113.58 529.18 133.53
  C 523.29 153.29 518.84 174.71 520.70 195.37
  Q 521.51 204.31 524.26 210.77
  C 531.00 226.54 545.26 241.56 564.04 237.64"
/>
<path stroke="#f0c556" vector-effect="non-scaling-stroke" d="
  M 564.04 237.64
  Q 564.74 237.51 564.82 238.01
  Q 564.88 238.36 564.54 238.82"
/>
<path stroke="#eca768" vector-effect="non-scaling-stroke" d="
  M 564.54 238.82
  L 553.00 243.28"
/>
<path stroke="#e98b6e" vector-effect="non-scaling-stroke" d="
  M 553.00 243.28
  L 549.46 244.06"
/>
<path stroke="#40abac" vector-effect="non-scaling-stroke" d="
  M 561.00 0.00
  Q 568.20 12.81 568.02 27.17
  C 567.96 31.39 568.20 35.28 567.73 38.50
  C 563.84 64.78 556.48 86.50 547.44 112.92
  C 540.25 133.92 534.32 154.36 532.97 176.49
  Q 532.29 187.62 533.94 194.92
  C 537.51 210.82 547.00 224.59 563.06 229.62
  C 573.67 232.93 582.88 228.55 594.29 224.33
  C 605.76 220.08 613.65 223.90 622.81 230.58
  Q 624.54 231.84 626.00 233.42"
/>
<path stroke="#a4cab0" vector-effect="non-scaling-stroke" d="
  M 626.00 253.98
  Q 617.43 244.29 608.53 236.95
  Q 602.73 232.17 595.37 230.20
  C 586.61 227.85 578.35 231.87 569.98 236.03"
/>
<path stroke="#9fb45a" vector-effect="non-scaling-stroke" d="
  M 569.98 236.03
  L 564.04 237.64"
/>
<path stroke="#258694" vector-effect="non-scaling-stroke" d="
  M 582.69 0.00
  Q 586.59 15.53 584.19 31.50
  C 580.41 56.65 571.44 79.92 562.90 103.71
  C 555.67 123.90 548.94 145.25 547.52 166.73
  C 546.45 182.86 549.62 196.42 559.91 208.34
  Q 570.73 220.86 586.86 220.11
  C 601.19 219.44 610.36 208.34 626.00 212.84"
/>
<path stroke="#7d555a" vector-effect="non-scaling-stroke" d="
  M 603.62 0.00
  Q 603.61 0.19 603.87 0.30
  Q 604.23 0.45 603.99 0.76
  L 603.81 0.99
  A 0.61 0.61 0.0 0 0 603.67 1.38
  C 603.71 32.94 589.62 64.24 578.73 93.76
  Q 569.14 119.76 565.09 142.06
  Q 564.55 145.06 564.31 148.47
  C 563.93 153.95 563.35 159.59 563.97 164.57
  C 566.23 182.78 578.71 203.06 598.75 205.19
  C 607.26 206.10 615.60 202.71 623.35 199.80
  Q 624.47 199.37 625.15 198.34
  Q 625.47 197.86 625.73 198.37
  L 626.00 198.89"
/>
<path stroke="#e0572b" vector-effect="non-scaling-stroke" d="
  M 622.84 0.00
  Q 619.30 20.63 613.85 35.81
  Q 604.96 60.55 596.02 85.25
  Q 588.20 106.87 584.88 133.74
  Q 581.95 157.39 596.60 175.65
  C 603.66 184.45 614.62 190.08 626.00 188.10"
/>
<path stroke="#e79113" vector-effect="non-scaling-stroke" d="
  M 626.00 53.88
  Q 625.88 55.12 624.49 59.01
  Q 622.28 65.15 616.90 82.97
  Q 610.77 103.24 609.74 124.24
  Q 609.14 136.35 611.23 144.07
  Q 614.97 157.86 626.00 167.81"
/>
<path stroke="#e0572b" vector-effect="non-scaling-stroke" d="
  M 539.56 248.56
  L 537.72 250.61"
/>
<path stroke="#807054" vector-effect="non-scaling-stroke" d="
  M 537.72 250.61
  L 533.46 252.43"
/>
<path stroke="#e0572b" vector-effect="non-scaling-stroke" d="
  M 533.46 252.43
  Q 524.45 255.10 516.45 252.03
  C 500.30 245.81 491.33 224.93 488.41 208.85
  C 486.60 198.92 486.90 185.40 487.79 175.25
  C 489.21 159.22 492.11 141.94 495.84 124.22
  Q 502.27 93.63 504.96 64.64
  Q 506.56 47.40 503.50 29.33
  C 502.59 23.94 500.81 19.34 498.24 14.76
  Q 492.62 4.73 480.24 3.38"
/>
<path stroke="#7d555a" vector-effect="non-scaling-stroke" d="
  M 163.59 120.78
  Q 162.93 118.41 164.11 115.26
  Q 168.29 104.05 171.01 91.50
  C 172.95 82.56 173.39 75.00 172.85 66.14
  C 171.87 50.14 162.66 30.11 144.49 29.37
  C 134.68 28.97 126.63 32.18 116.76 36.77
  Q 105.81 41.85 95.60 48.36
  Q 82.39 56.78 69.03 64.97
  C 63.78 68.19 56.82 71.88 51.99 73.36
  Q 32.48 79.34 19.21 65.54
  Q 7.41 53.26 0.00 35.07"
/>
<path stroke="#7d555a" vector-effect="non-scaling-stroke" d="
  M 533.46 252.43
  Q 526.20 257.21 520.48 258.87
  C 498.14 265.37 483.68 240.20 478.43 222.71
  Q 476.05 214.76 475.40 203.01
  Q 474.08 179.06 477.84 155.26
  C 482.76 124.11 488.98 91.92 489.55 61.38
  Q 489.78 48.97 487.75 36.75
  Q 486.58 29.70 483.11 21.87
  Q 476.94 7.96 460.53 7.58"
/>
<path stroke="#7d555a" vector-effect="non-scaling-stroke" d="
  M 537.72 250.61
  Q 545.65 248.98 551.67 252.31
  Q 561.13 257.54 569.02 267.01
  Q 591.69 294.24 613.81 321.93
  Q 621.81 331.94 625.00 336.42
  C 625.88 337.66 625.79 338.82 626.00 340.26"
/>
<path stroke="#258694" vector-effect="non-scaling-stroke" d="
  M 626.00 371.61
  L 625.75 372.29
  Q 625.50 372.95 625.10 372.37
  Q 601.12 337.64 576.04 303.70
  Q 564.98 288.73 552.95 274.55
  C 546.87 267.37 537.99 258.97 527.95 258.91
  C 520.10 258.87 514.01 265.55 507.84 267.81
  C 488.60 274.87 473.67 253.80 467.45 238.73
  Q 465.04 232.89 463.42 225.02
  C 460.21 209.43 460.39 192.96 461.80 176.25
  Q 463.51 155.85 467.86 128.87
  C 471.93 103.68 474.30 78.37 472.19 52.51
  C 471.16 39.97 466.98 24.60 456.38 17.79
  Q 448.58 12.79 437.48 13.94"
/>
<path stroke="#848f42" vector-effect="non-scaling-stroke" d="
  M 158.30 133.58
  L 146.96 165.29"
/>
<path stroke="#807054" vector-effect="non-scaling-stroke" d="
  M 146.96 165.29
  L 140.40 185.27"
/>
<path stroke="#7d555a" vector-effect="non-scaling-stroke" d="
  M 140.40 185.27
  Q 134.78 202.22 133.95 215.76
  Q 133.24 227.35 134.41 232.86
  C 138.08 250.16 149.13 262.32 168.16 257.99
  Q 173.88 256.69 178.23 254.22
  Q 197.23 243.48 214.47 225.96
  C 226.02 214.22 236.56 203.86 249.38 190.97
  Q 271.38 168.85 295.32 148.82
  Q 302.25 143.02 311.24 137.72
  C 323.25 130.64 340.29 128.05 349.85 140.66
  C 357.81 151.15 360.02 166.97 360.28 180.01
  Q 360.71 201.63 357.06 222.90
  C 353.30 244.77 348.58 267.65 347.59 289.25
  C 346.72 308.07 349.30 331.44 362.67 346.07
  C 372.90 357.28 388.63 361.71 403.03 356.03
  C 413.51 351.89 422.13 346.58 433.65 341.95
  Q 437.47 340.42 440.68 339.67
  C 462.88 334.48 481.16 354.00 491.18 370.82
  Q 494.64 376.65 500.28 388.62
  Q 506.80 402.48 511.81 417.00"
/>
<path stroke="#258694" vector-effect="non-scaling-stroke" d="
  M 499.23 417.00
  Q 492.55 399.90 479.52 376.94
  C 473.18 365.76 465.06 355.14 453.06 350.93
  C 428.79 342.43 407.03 361.73 385.41 368.78
  C 369.00 374.13 352.87 370.95 341.11 358.22
  Q 335.42 352.05 332.83 344.89
  C 326.28 326.81 326.70 306.32 329.67 287.07
  C 331.24 276.89 334.54 259.98 337.23 246.50
  C 341.57 224.81 348.07 176.74 327.71 160.82
  C 311.64 148.25 291.77 162.49 280.08 173.84
  C 254.11 199.08 229.89 227.11 205.21 254.19
  C 192.51 268.12 163.85 298.16 142.70 283.37
  C 124.89 270.92 126.38 244.41 129.98 225.84
  Q 131.69 217.01 133.53 208.20
  Q 134.12 205.36 135.56 200.42
  Q 136.69 196.55 137.51 192.60
  Q 139.08 184.98 140.33 181.02
  Q 144.03 169.24 147.86 157.50
  Q 151.66 145.83 153.28 138.28
  Q 156.39 123.77 157.42 109.75
  C 158.96 88.66 149.30 49.11 119.00 57.11
  Q 107.33 60.19 96.98 66.44
  Q 80.64 76.32 64.36 86.30
  C 55.62 91.65 44.93 97.16 34.44 96.34
  C 23.28 95.46 13.13 86.50 7.11 77.36
  Q 3.62 72.06 0.00 66.63"
/>
<path stroke="#40abac" vector-effect="non-scaling-stroke" d="
  M 487.55 417.00
  Q 482.31 404.72 471.48 385.73
  C 464.56 373.59 454.50 361.90 440.49 359.54
  Q 427.93 357.43 415.82 361.45
  Q 402.18 365.98 397.15 368.87
  Q 378.24 379.73 361.26 383.66
  Q 344.51 387.55 329.97 379.21
  C 300.96 362.56 306.72 320.44 312.33 293.01
  Q 315.82 275.98 319.50 259.01
  C 323.39 241.05 326.82 195.37 307.20 182.91
  C 289.75 171.83 270.06 196.30 259.77 207.14
  C 256.17 210.94 252.44 216.07 248.44 220.31
  Q 246.63 222.22 244.52 225.01
  C 241.93 228.42 239.01 230.97 236.51 234.66
  Q 234.32 237.88 231.10 241.33
  C 227.00 245.71 223.41 251.71 219.59 256.21
  C 215.17 261.43 210.91 266.81 206.22 271.70
  C 198.04 280.20 190.09 289.32 181.30 296.97
  C 171.68 305.32 158.10 317.07 144.13 314.63
  Q 137.97 313.55 133.89 308.81
  C 129.28 303.44 125.37 295.02 123.58 287.85
  Q 121.06 277.78 121.46 267.32
  C 121.64 262.41 121.54 258.03 122.07 254.01
  Q 124.34 236.97 128.34 220.27
  Q 130.63 210.67 132.21 202.61
  C 134.85 189.11 137.75 175.89 140.20 160.41
  C 143.86 137.35 143.89 113.20 128.66 94.16
  C 126.03 90.87 121.73 87.18 118.31 85.43
  C 103.46 77.82 89.94 86.26 77.18 95.18
  C 63.65 104.64 43.67 121.42 25.81 116.99
  Q 14.49 114.19 6.97 105.00
  Q 2.12 99.08 0.00 96.92"
/>
<path stroke="#e79113" vector-effect="non-scaling-stroke" d="
  M 542.08 417.00
  C 532.56 397.10 524.07 377.57 512.72 357.72
  C 504.99 344.19 494.95 330.05 481.24 322.21
  Q 473.76 317.94 467.73 317.53
  C 455.19 316.67 447.43 326.66 436.22 330.13
  C 418.26 335.70 407.08 325.96 398.61 311.04
  C 388.46 293.18 386.88 271.51 388.00 250.75
  C 389.77 218.09 396.76 182.92 398.16 153.64
  C 398.99 136.10 397.82 114.56 389.19 98.80
  C 374.56 72.10 341.92 88.72 324.49 101.00
  C 297.65 119.93 272.51 140.93 246.97 161.54
  C 237.11 169.50 227.16 176.71 217.03 184.01
  C 204.51 193.05 182.90 206.11 166.65 202.24
  C 153.55 199.13 147.27 184.45 147.35 171.75
  Q 147.36 170.12 148.61 165.40
  Q 148.63 165.34 148.57 165.40
  Q 148.55 165.41 148.54 165.43
  Q 148.32 165.61 148.32 165.62
  Q 148.40 166.45 147.46 166.60
  Q 147.04 166.67 147.02 166.25
  L 146.96 165.29"
/>
<path stroke="#a4cab0" vector-effect="non-scaling-stroke" d="
  M 472.93 417.00
  Q 464.85 397.70 454.57 384.45
  Q 446.23 373.71 433.18 371.05
  C 421.98 368.78 406.98 372.52 395.99 376.72
  Q 376.09 384.34 356.16 391.80
  Q 337.70 398.71 320.77 398.36
  Q 313.49 398.21 306.91 394.38
  C 283.47 380.78 286.68 339.61 291.35 317.85
  Q 294.13 304.92 299.55 281.75
  Q 305.42 256.63 302.35 233.03
  C 300.27 217.06 292.27 200.47 273.20 204.98
  C 260.40 208.00 249.10 222.60 241.09 232.13
  C 236.42 237.70 232.17 244.40 227.47 250.44
  Q 227.23 250.75 227.45 251.08
  Q 227.55 251.22 227.74 251.25"
/>
<path stroke="#9b956d" vector-effect="non-scaling-stroke" d="
  M 227.74 251.25
  Q 225.72 253.09 223.58 254.79
  Q 221.01 256.83 219.55 258.39
  Q 214.28 264.05 209.90 270.57"
/>
<path stroke="#987a73" vector-effect="non-scaling-stroke" d="
  M 209.90 270.57
  Q 193.46 285.14 181.71 304.46"
/>
<path stroke="#38939c" vector-effect="non-scaling-stroke" d="
  M 181.71 304.46
  L 157.21 333.24"
/>
<path stroke="#40abac" vector-effect="non-scaling-stroke" d="
  M 157.21 333.24
  Q 152.87 338.57 147.15 342.73"
/>
<path stroke="#a4cab0" vector-effect="non-scaling-stroke" d="
  M 147.15 342.73
  Q 135.57 345.21 127.07 336.63
  C 118.55 328.03 114.34 315.03 113.51 303.25
  Q 112.21 285.05 114.92 264.24
  Q 118.56 236.24 123.08 208.37
  C 127.62 180.38 130.51 145.91 112.29 121.70
  Q 99.44 104.63 79.82 109.79
  C 62.61 114.31 52.35 129.82 36.67 136.21
  Q 15.60 144.79 0.00 124.65"
/>
<path stroke="#e0572b" vector-effect="non-scaling-stroke" d="
  M 525.28 417.00
  Q 517.89 398.22 511.05 382.97
  C 501.63 361.99 475.22 318.06 445.72 331.48
  Q 434.41 336.63 423.13 341.88
  Q 415.04 345.65 406.57 345.12
  C 382.39 343.62 370.01 315.11 368.37 294.48
  C 365.97 264.20 371.36 234.86 376.00 205.11
  C 377.66 194.47 378.33 184.09 379.14 173.50
  Q 380.59 154.30 376.87 135.42
  C 374.90 125.39 369.65 115.04 360.48 110.28
  C 345.18 102.35 326.84 112.34 313.94 121.70
  Q 289.88 139.17 271.46 155.70
  C 258.26 167.55 245.48 178.55 232.06 191.44
  C 217.73 205.21 201.75 218.22 183.45 226.39
  Q 175.15 230.09 168.50 230.47
  C 149.05 231.58 139.44 214.60 139.92 197.26
  Q 140.09 191.51 140.40 185.27"
/>
<path stroke="#91bda8" vector-effect="non-scaling-stroke" d="
  M 147.15 342.73
  L 123.96 366.80"
/>
<path stroke="#f0c556" vector-effect="non-scaling-stroke" d="
  M 123.96 366.80
  Q 108.33 354.77 104.49 335.22
  Q 100.90 316.91 102.15 298.24
  C 104.01 270.76 107.31 243.46 109.30 215.99
  C 111.17 190.23 109.27 155.78 86.95 138.07
  C 75.35 128.86 61.19 130.82 49.81 139.32
  C 35.29 150.18 19.74 167.82 0.00 154.03"
/>
<path stroke="#8ca752" vector-effect="non-scaling-stroke" d="
  M 123.96 366.80
  L 116.11 375.46"
/>
<path stroke="#9fb45a" vector-effect="non-scaling-stroke" d="
  M 116.11 375.46
  L 103.68 384.65"
/>
<path stroke="#e79113" vector-effect="non-scaling-stroke" d="
  M 103.68 384.65
  Q 94.96 374.96 91.19 362.72
  Q 88.95 355.44 87.62 343.07
  C 85.26 320.99 88.15 298.41 89.44 276.52
  C 90.31 261.53 91.73 246.25 91.84 231.50
  C 92.03 206.48 88.78 176.61 68.44 159.95
  Q 63.28 155.73 57.55 154.36
  Q 47.31 151.92 38.13 156.54
  C 24.89 163.20 16.33 178.54 0.00 178.31"
/>
<path stroke="#9b956d" vector-effect="non-scaling-stroke" d="
  M 103.68 384.65
  L 82.11 399.69"
/>
<path stroke="#e0572b" vector-effect="non-scaling-stroke" d="
  M 82.11 399.69
  Q 77.43 393.84 76.32 391.42
  C 66.68 370.41 67.00 347.61 68.27 325.02
  Q 69.84 297.04 71.56 269.07
  C 72.68 250.97 72.54 233.16 68.74 214.26
  C 66.35 202.42 58.99 185.98 48.44 178.25
  C 30.88 165.38 14.49 175.24 0.83 188.04"
/>
<path stroke="#807054" vector-effect="non-scaling-stroke" d="
  M 0.83 188.04
  Q 0.83 187.49 0.00 188.49"
/>
<path stroke="#987a73" vector-effect="non-scaling-stroke" d="
  M 82.11 399.69
  Q 78.51 401.87 77.01 404.29"
/>
<path stroke="#e98b6e" vector-effect="non-scaling-stroke" d="
  M 77.01 404.29
  L 62.54 410.00"
/>
<path stroke="#7d555a" vector-effect="non-scaling-stroke" d="
  M 62.54 410.00
  Q 59.76 409.34 59.07 408.41
  Q 50.77 397.39 48.23 383.74
  C 44.90 365.89 45.39 347.41 46.72 329.39
  Q 48.96 299.35 49.98 269.25
  C 50.83 244.44 47.95 209.92 26.01 193.50
  Q 15.02 185.29 1.30 188.57
  Q 0.97 188.65 0.85 188.33
  Q 0.80 188.20 0.83 188.04"
/>
<path stroke="#89a597" vector-effect="non-scaling-stroke" d="
  M 62.54 410.00
  L 42.44 417.00"
/>
<path stroke="#258694" vector-effect="non-scaling-stroke" d="
  M 40.73 417.00
  Q 29.26 406.73 25.73 392.74
  C 20.62 372.51 21.71 350.57 23.44 328.75
  Q 24.44 316.08 26.19 286.00
  Q 27.11 269.99 25.31 254.14
  C 23.67 239.65 19.61 227.61 11.74 216.01
  Q 7.13 209.23 0.00 204.61"
/>
<path stroke="#f0c556" vector-effect="non-scaling-stroke" d="
  M 455.95 417.00
  Q 449.58 405.05 447.14 401.81
  C 436.52 387.69 423.79 380.34 405.52 383.89
  C 376.27 389.57 350.23 405.42 321.13 411.62
  C 305.88 414.87 288.68 414.95 278.15 401.03
  C 270.59 391.06 267.33 375.99 269.51 363.74
  C 274.50 335.79 282.62 300.57 284.11 268.25
  C 284.65 256.60 283.50 237.70 274.30 230.17
  C 265.95 223.34 253.98 225.03 246.05 231.80
  Q 237.13 239.42 230.13 249.21"
/>
<path stroke="#eca768" vector-effect="non-scaling-stroke" d="
  M 230.13 249.21
  L 227.74 251.25"
/>
<path stroke="#40abac" vector-effect="non-scaling-stroke" d="
  M 17.29 417.00
  Q 13.98 413.91 10.81 410.73
  Q 7.76 407.68 5.96 404.18
  Q 2.37 397.22 0.00 389.62"
/>
<path stroke="#8ca752" vector-effect="non-scaling-stroke" d="
  M 0.00 305.38
  L 0.00 294.47"
/>
<path stroke="#8ca752" vector-effect="non-scaling-stroke" d="
  M 0.00 271.89
  L 0.00 263.99"
/>
<path stroke="#e79113" vector-effect="non-scaling-stroke" d="
  M 432.31 417.00
  Q 428.72 412.53 426.30 409.96
  C 408.44 391.01 383.58 399.70 361.83 408.13
  Q 350.35 412.58 338.91 417.00"
/>
<path stroke="#e79113" vector-effect="non-scaling-stroke" d="
  M 257.81 417.00
  Q 252.16 407.85 250.16 397.30
  C 248.59 389.01 250.10 380.40 251.84 372.01
  C 257.10 346.73 262.67 321.23 265.13 295.50
  C 266.41 282.19 267.28 254.93 251.42 248.13
  Q 240.76 243.56 230.13 249.21"
/>
<path stroke="#f0c556" vector-effect="non-scaling-stroke" d="
  M 626.00 271.54
  Q 615.19 261.48 605.79 251.22
  C 598.13 242.86 587.72 233.31 575.51 235.18
  Q 572.78 235.59 569.98 236.03"
/>
<path stroke="#e79113" vector-effect="non-scaling-stroke" d="
  M 626.00 291.37
  Q 621.28 284.36 614.89 277.83
  C 605.61 268.35 598.20 259.86 589.47 251.23
  C 582.13 243.97 575.91 239.98 566.27 238.56
  Q 565.32 238.42 564.54 238.82"
/>
<path stroke="#e0572b" vector-effect="non-scaling-stroke" d="
  M 626.00 312.39
  L 625.69 310.39
  Q 625.61 309.90 625.27 309.52
  Q 602.35 284.13 579.62 258.57
  C 572.66 250.74 564.21 243.21 553.00 243.28"
/>
<path stroke="#e0572b" vector-effect="non-scaling-stroke" d="
  M 231.45 417.00
  Q 230.45 406.89 232.89 394.15
  C 239.00 362.28 246.81 329.98 246.51 297.76
  Q 246.42 287.37 241.64 278.02
  C 235.15 265.31 221.37 264.57 209.90 270.57"
/>
<path stroke="#7d555a" vector-effect="non-scaling-stroke" d="
  M 215.28 417.00
  Q 215.51 410.77 216.90 404.63
  C 223.89 373.75 234.15 343.76 226.45 311.73
  C 222.19 294.04 203.99 287.11 189.47 298.69
  Q 184.71 302.50 181.71 304.46"
/>
<path stroke="#258694" vector-effect="non-scaling-stroke" d="
  M 209.69 417.00
  C 212.95 394.54 224.70 329.39 191.51 323.24
  C 178.64 320.85 168.58 326.81 158.10 333.79
  Q 157.95 333.89 157.76 333.88
  Q 157.63 333.88 157.50 333.87
  Q 157.24 333.86 157.34 333.62
  Q 157.43 333.42 157.21 333.24"
/>
<path stroke="#40abac" vector-effect="non-scaling-stroke" d="
  M 200.35 417.00
  C 200.71 398.65 200.54 373.89 184.82 361.19
  C 166.03 346.01 138.27 359.94 121.13 371.96
  Q 120.63 372.31 120.10 372.00
  Q 119.80 371.82 119.70 372.27
  Q 119.61 372.73 119.24 373.02
  L 116.11 375.46"
/>
<path stroke="#a4cab0" vector-effect="non-scaling-stroke" d="
  M 182.19 417.00
  Q 174.17 394.69 153.00 388.47
  Q 144.48 385.97 133.22 386.91
  Q 116.87 388.26 101.47 394.53
  Q 89.47 399.41 77.01 404.29"
/>
<path stroke="#f0c556" vector-effect="non-scaling-stroke" d="
  M 121.86 417.00
  Q 112.40 415.77 102.95 415.58
  C 96.06 415.45 88.53 416.47 81.25 417.00"
/>
</g>
<path fill="#e37225" d="
  M 0.00 0.00
  L 15.94 0.00
  Q 19.13 6.82 22.85 13.17
  C 28.76 23.25 37.40 31.71 49.31 32.70
  C 60.09 33.59 74.77 26.88 84.63 21.11
  Q 102.94 10.38 120.68 0.00
  L 140.87 0.00
  L 155.01 0.00
  L 204.93 0.00
  Q 207.33 9.35 206.34 17.14
  Q 205.07 27.07 204.11 30.37
  Q 198.52 49.60 194.10 58.36
  Q 190.19 66.11 186.52 73.95
  L 180.54 83.91
  Q 181.90 76.43 184.57 69.51
  Q 185.97 65.87 188.24 53.12
  C 191.59 34.33 187.33 5.83 163.92 3.56
  Q 157.20 2.91 147.34 5.82
  C 127.42 11.72 108.80 22.96 91.55 33.34
  C 82.16 38.99 74.43 43.19 65.57 47.63
  C 51.99 54.43 39.40 56.84 26.90 46.91
  Q 22.90 43.74 20.38 40.35
  Q 8.68 24.66 0.90 4.09
  Q 0.76 3.71 0.37 3.60
  Q 0.19 3.54 0.00 3.50
  L 0.00 0.00
  Z"
/>
<path fill="#ebaf00" d="
  M 15.94 0.00
  L 37.15 0.00
  Q 44.78 10.10 56.12 12.11
  C 68.90 14.37 85.82 6.89 97.05 0.00
  L 120.68 0.00
  Q 102.94 10.38 84.63 21.11
  C 74.77 26.88 60.09 33.59 49.31 32.70
  C 37.40 31.71 28.76 23.25 22.85 13.17
  Q 19.13 6.82 15.94 0.00
  Z"
/>
<path fill="#f5dbab" d="
  M 37.15 0.00
  L 97.05 0.00
  C 85.82 6.89 68.90 14.37 56.12 12.11
  Q 44.78 10.10 37.15 0.00
  Z"
/>
<path fill="#ebaf00" d="
  M 140.87 0.00
  L 155.01 0.00
  L 140.87 0.00
  Z"
/>
<path fill="#ebaf00" d="
  M 204.93 0.00
  L 222.57 0.00
  Q 219.09 13.50 214.81 22.50
  Q 203.72 45.83 186.52 73.95
  Q 190.19 66.11 194.10 58.36
  Q 198.52 49.60 204.11 30.37
  Q 205.07 27.07 206.34 17.14
  Q 207.33 9.35 204.93 0.00
  Z"
/>
<path fill="#f5dbab" d="
  M 222.57 0.00
  L 233.57 0.00
  Q 227.14 13.36 223.20 19.70
  Q 198.12 60.01 189.91 74.90
  C 183.08 87.29 177.78 97.79 173.97 110.64
  C 169.60 125.39 169.72 144.10 185.14 152.50
  C 196.78 158.85 211.48 155.02 223.26 149.51
  Q 240.66 141.38 256.93 129.73
  Q 290.76 105.51 324.55 81.26
  Q 351.33 62.03 375.20 49.10
  Q 386.16 43.16 399.23 41.95
  C 419.32 40.10 429.83 54.11 433.30 72.26
  C 438.05 97.13 436.21 125.33 433.24 147.97
  Q 429.34 177.66 427.35 207.52
  C 426.40 221.84 426.68 234.47 428.22 247.99
  C 430.08 264.37 439.53 290.51 455.92 297.83
  C 463.95 301.42 471.72 300.60 478.64 295.35
  Q 484.57 290.84 488.99 289.44
  C 499.36 286.14 510.50 295.76 517.00 303.01
  Q 538.80 327.32 555.24 355.53
  Q 573.38 386.65 592.84 417.00
  L 563.67 417.00
  Q 543.10 376.75 531.85 357.92
  Q 517.95 334.64 499.01 315.24
  C 492.12 308.19 483.39 302.05 473.08 305.20
  C 465.15 307.61 459.18 314.59 451.21 316.35
  C 432.70 320.46 419.99 300.77 414.01 286.44
  Q 410.65 278.38 409.13 267.14
  Q 405.93 243.36 408.56 217.00
  Q 410.55 196.93 412.26 183.66
  C 416.20 152.94 420.63 120.45 413.52 90.00
  C 411.41 80.95 406.01 70.68 397.93 65.72
  C 380.03 54.72 350.56 71.55 335.37 82.15
  Q 302.37 105.19 270.44 129.69
  C 255.59 141.09 240.88 151.46 225.60 161.61
  C 209.01 172.63 177.18 188.35 163.08 167.27
  C 158.77 160.81 156.73 152.23 157.50 144.51
  Q 158.20 137.48 158.30 133.58
  L 163.59 120.78
  L 180.54 83.91
  L 186.52 73.95
  Q 203.72 45.83 214.81 22.50
  Q 219.09 13.50 222.57 0.00
  Z"
/>
<path fill="#53b8b4" d="
  M 233.57 0.00
  L 243.47 0.00
  Q 239.92 6.18 236.05 12.33
  C 228.68 24.03 222.01 35.60 215.03 47.25
  Q 204.31 65.15 196.98 84.66
  C 191.77 98.53 187.90 118.74 200.20 130.44
  C 204.87 134.89 209.79 136.91 216.48 137.25
  C 230.43 137.96 247.14 130.30 258.46 122.99
  A 0.70 0.70 0.0 0 0 257.84 121.74
  Q 255.58 122.56 255.49 121.23
  Q 267.77 118.89 278.13 110.05
  L 304.30 91.43
  L 333.86 70.64
  Q 358.84 52.79 385.48 37.72
  Q 389.02 35.72 392.79 34.27
  Q 393.23 34.10 393.60 33.82
  L 397.02 31.27
  L 402.88 28.90
  Q 409.69 26.57 416.06 25.44
  C 434.65 22.14 445.45 31.71 450.85 48.59
  Q 454.26 59.21 454.75 69.76
  Q 456.35 104.33 451.30 140.35
  C 448.42 160.89 445.80 183.32 445.22 201.99
  Q 444.82 215.25 447.03 232.15
  Q 448.02 239.69 450.34 246.53
  C 455.05 260.38 462.13 275.03 476.29 280.89
  C 486.99 285.32 494.01 280.07 503.63 273.84
  C 522.01 261.93 549.49 298.37 556.97 310.74
  Q 585.00 357.11 610.00 394.27
  Q 615.69 402.73 626.00 415.89
  L 626.00 417.00
  L 592.84 417.00
  Q 573.38 386.65 555.24 355.53
  Q 538.80 327.32 517.00 303.01
  C 510.50 295.76 499.36 286.14 488.99 289.44
  Q 484.57 290.84 478.64 295.35
  C 471.72 300.60 463.95 301.42 455.92 297.83
  C 439.53 290.51 430.08 264.37 428.22 247.99
  C 426.68 234.47 426.40 221.84 427.35 207.52
  Q 429.34 177.66 433.24 147.97
  C 436.21 125.33 438.05 97.13 433.30 72.26
  C 429.83 54.11 419.32 40.10 399.23 41.95
  Q 386.16 43.16 375.20 49.10
  Q 351.33 62.03 324.55 81.26
  Q 290.76 105.51 256.93 129.73
  Q 240.66 141.38 223.26 149.51
  C 211.48 155.02 196.78 158.85 185.14 152.50
  C 169.72 144.10 169.60 125.39 173.97 110.64
  C 177.78 97.79 183.08 87.29 189.91 74.90
  Q 198.12 60.01 223.20 19.70
  Q 227.14 13.36 233.57 0.00
  Z"
/>
<path fill="#2d9ea4" d="
  M 243.47 0.00
  L 256.93 0.00
  Q 241.84 27.26 229.75 55.41
  C 222.39 72.53 214.70 98.27 228.03 114.70
  C 235.32 123.69 244.82 123.46 255.49 121.23
  Q 255.58 122.56 257.84 121.74
  A 0.70 0.70 0.0 0 1 258.46 122.99
  C 247.14 130.30 230.43 137.96 216.48 137.25
  C 209.79 136.91 204.87 134.89 200.20 130.44
  C 187.90 118.74 191.77 98.53 196.98 84.66
  Q 204.31 65.15 215.03 47.25
  C 222.01 35.60 228.68 24.03 236.05 12.33
  Q 239.92 6.18 243.47 0.00
  Z"
/>
<path fill="#1d6e83" d="
  M 256.93 0.00
  L 275.12 0.00
  Q 273.74 2.24 273.34 3.28
  C 264.53 25.97 254.36 48.20 253.26 73.50
  C 252.75 85.30 256.79 100.00 267.52 106.21
  Q 272.20 108.92 278.13 110.05
  Q 267.77 118.89 255.49 121.23
  C 244.82 123.46 235.32 123.69 228.03 114.70
  C 214.70 98.27 222.39 72.53 229.75 55.41
  Q 241.84 27.26 256.93 0.00
  Z"
/>
<path fill="#dd3b31" d="
  M 275.12 0.00
  L 294.78 0.00
  Q 287.61 20.94 285.56 40.00
  C 283.74 56.99 287.14 82.53 304.30 91.43
  L 278.13 110.05
  Q 272.20 108.92 267.52 106.21
  C 256.79 100.00 252.75 85.30 253.26 73.50
  C 254.36 48.20 264.53 25.97 273.34 3.28
  Q 273.74 2.24 275.12 0.00
  Z"
/>
<path fill="#e37225" d="
  M 294.78 0.00
  L 313.46 0.00
  C 309.77 20.09 310.16 41.05 321.24 58.48
  Q 325.90 65.81 333.84 69.27
  Q 334.32 69.47 334.13 69.95
  L 333.86 70.64
  L 304.30 91.43
  C 287.14 82.53 283.74 56.99 285.56 40.00
  Q 287.61 20.94 294.78 0.00
  Z"
/>
<path fill="#ebaf00" d="
  M 313.46 0.00
  L 316.88 0.00
  Q 317.02 14.37 324.36 26.60
  C 334.27 43.09 352.65 43.69 369.36 39.92
  Q 383.45 36.74 397.02 31.27
  L 393.60 33.82
  Q 393.23 34.10 392.79 34.27
  Q 389.02 35.72 385.48 37.72
  Q 358.84 52.79 333.86 70.64
  L 334.13 69.95
  Q 334.32 69.47 333.84 69.27
  Q 325.90 65.81 321.24 58.48
  C 310.16 41.05 309.77 20.09 313.46 0.00
  Z"
/>
<path fill="#f5dbab" d="
  M 316.88 0.00
  L 338.53 0.00
  Q 349.54 11.09 364.92 12.82
  C 372.91 13.71 383.64 13.49 392.25 12.01
  Q 416.95 7.77 442.85 0.00
  L 467.61 0.00
  L 469.11 0.22
  A 0.30 0.30 0.0 0 1 469.16 0.81
  C 460.40 3.68 453.01 5.74 447.15 9.95
  Q 442.95 10.91 437.48 13.94
  Q 428.40 16.62 425.35 17.61
  Q 414.11 21.21 402.88 28.90
  L 397.02 31.27
  Q 383.45 36.74 369.36 39.92
  C 352.65 43.69 334.27 43.09 324.36 26.60
  Q 317.02 14.37 316.88 0.00
  Z"
/>
<path fill="#53b8b4" d="
  M 338.53 0.00
  L 414.87 0.00
  L 429.51 0.00
  L 442.85 0.00
  Q 416.95 7.77 392.25 12.01
  C 383.64 13.49 372.91 13.71 364.92 12.82
  Q 349.54 11.09 338.53 0.00
  Z"
/>
<path fill="#ebaf00" d="
  M 414.87 0.00
  L 429.51 0.00
  L 414.87 0.00
  Z"
/>
<path fill="#ebaf00" d="
  M 467.61 0.00
  L 519.98 0.00
  Q 528.47 6.08 531.66 14.38
  Q 537.51 29.59 536.10 47.02
  C 534.25 69.82 529.20 90.91 523.02 113.21
  C 516.75 135.83 511.35 158.24 509.75 181.76
  C 508.62 198.35 510.58 212.98 519.58 227.10
  Q 530.31 243.92 549.46 244.06
  L 539.56 248.56
  Q 522.51 249.21 512.37 235.82
  C 501.78 221.85 498.20 206.82 498.61 189.00
  Q 499.15 166.02 504.59 140.26
  C 511.73 106.47 522.15 72.43 520.31 37.50
  C 519.78 27.42 517.39 15.31 510.65 7.88
  C 502.89 -0.66 490.76 -1.20 480.24 3.38
  Q 470.83 3.60 460.53 7.58
  L 447.15 9.95
  C 453.01 5.74 460.40 3.68 469.16 0.81
  A 0.30 0.30 0.0 0 0 469.11 0.22
  L 467.61 0.00
  Z"
/>
<path fill="#f5dbab" d="
  M 519.98 0.00
  L 540.11 0.00
  C 550.94 12.08 552.99 28.18 551.46 43.51
  C 549.80 60.25 546.08 76.48 541.03 93.61
  Q 535.14 113.58 529.18 133.53
  C 523.29 153.29 518.84 174.71 520.70 195.37
  Q 521.51 204.31 524.26 210.77
  C 531.00 226.54 545.26 241.56 564.04 237.64
  Q 564.74 237.51 564.82 238.01
  Q 564.88 238.36 564.54 238.82
  L 553.00 243.28
  L 549.46 244.06
  Q 530.31 243.92 519.58 227.10
  C 510.58 212.98 508.62 198.35 509.75 181.76
  C 511.35 158.24 516.75 135.83 523.02 113.21
  C 529.20 90.91 534.25 69.82 536.10 47.02
  Q 537.51 29.59 531.66 14.38
  Q 528.47 6.08 519.98 0.00
  Z"
/>
<path fill="#53b8b4" d="
  M 540.11 0.00
  L 561.00 0.00
  Q 568.20 12.81 568.02 27.17
  C 567.96 31.39 568.20 35.28 567.73 38.50
  C 563.84 64.78 556.48 86.50 547.44 112.92
  C 540.25 133.92 534.32 154.36 532.97 176.49
  Q 532.29 187.62 533.94 194.92
  C 537.51 210.82 547.00 224.59 563.06 229.62
  C 573.67 232.93 582.88 228.55 594.29 224.33
  C 605.76 220.08 613.65 223.90 622.81 230.58
  Q 624.54 231.84 626.00 233.42
  L 626.00 253.98
  Q 617.43 244.29 608.53 236.95
  Q 602.73 232.17 595.37 230.20
  C 586.61 227.85 578.35 231.87 569.98 236.03
  L 564.04 237.64
  C 545.26 241.56 531.00 226.54 524.26 210.77
  Q 521.51 204.31 520.70 195.37
  C 518.84 174.71 523.29 153.29 529.18 133.53
  Q 535.14 113.58 541.03 93.61
  C 546.08 76.48 549.80 60.25 551.46 43.51
  C 552.99 28.18 550.94 12.08 540.11 0.00
  Z"
/>
<path fill="#2d9ea4" d="
  M 561.00 0.00
  L 582.69 0.00
  Q 586.59 15.53 584.19 31.50
  C 580.41 56.65 571.44 79.92 562.90 103.71
  C 555.67 123.90 548.94 145.25 547.52 166.73
  C 546.45 182.86 549.62 196.42 559.91 208.34
  Q 570.73 220.86 586.86 220.11
  C 601.19 219.44 610.36 208.34 626.00 212.84
  L 626.00 233.42
  Q 624.54 231.84 622.81 230.58
  C 613.65 223.90 605.76 220.08 594.29 224.33
  C 582.88 228.55 573.67 232.93 563.06 229.62
  C 547.00 224.59 537.51 210.82 533.94 194.92
  Q 532.29 187.62 532.97 176.49
  C 534.32 154.36 540.25 133.92 547.44 112.92
  C 556.48 86.50 563.84 64.78 567.73 38.50
  C 568.20 35.28 567.96 31.39 568.02 27.17
  Q 568.20 12.81 561.00 0.00
  Z"
/>
<path fill="#1d6e83" d="
  M 582.69 0.00
  L 603.62 0.00
  Q 603.61 0.19 603.87 0.30
  Q 604.23 0.45 603.99 0.76
  L 603.81 0.99
  A 0.61 0.61 0.0 0 0 603.67 1.38
  C 603.71 32.94 589.62 64.24 578.73 93.76
  Q 569.14 119.76 565.09 142.06
  Q 564.55 145.06 564.31 148.47
  C 563.93 153.95 563.35 159.59 563.97 164.57
  C 566.23 182.78 578.71 203.06 598.75 205.19
  C 607.26 206.10 615.60 202.71 623.35 199.80
  Q 624.47 199.37 625.15 198.34
  Q 625.47 197.86 625.73 198.37
  L 626.00 198.89
  L 626.00 212.84
  C 610.36 208.34 601.19 219.44 586.86 220.11
  Q 570.73 220.86 559.91 208.34
  C 549.62 196.42 546.45 182.86 547.52 166.73
  C 548.94 145.25 555.67 123.90 562.90 103.71
  C 571.44 79.92 580.41 56.65 584.19 31.50
  Q 586.59 15.53 582.69 0.00
  Z"
/>
<path fill="#dd3b31" d="
  M 603.62 0.00
  L 622.84 0.00
  Q 619.30 20.63 613.85 35.81
  Q 604.96 60.55 596.02 85.25
  Q 588.20 106.87 584.88 133.74
  Q 581.95 157.39 596.60 175.65
  C 603.66 184.45 614.62 190.08 626.00 188.10
  L 626.00 198.89
  L 625.73 198.37
  Q 625.47 197.86 625.15 198.34
  Q 624.47 199.37 623.35 199.80
  C 615.60 202.71 607.26 206.10 598.75 205.19
  C 578.71 203.06 566.23 182.78 563.97 164.57
  C 563.35 159.59 563.93 153.95 564.31 148.47
  Q 564.55 145.06 565.09 142.06
  Q 569.14 119.76 578.73 93.76
  C 589.62 64.24 603.71 32.94 603.67 1.38
  A 0.61 0.61 0.0 0 1 603.81 0.99
  L 603.99 0.76
  Q 604.23 0.45 603.87 0.30
  Q 603.61 0.19 603.62 0.00
  Z"
/>
<path fill="#e37225" d="
  M 622.84 0.00
  L 626.00 0.00
  L 626.00 53.88
  Q 625.88 55.12 624.49 59.01
  Q 622.28 65.15 616.90 82.97
  Q 610.77 103.24 609.74 124.24
  Q 609.14 136.35 611.23 144.07
  Q 614.97 157.86 626.00 167.81
  L 626.00 188.10
  C 614.62 190.08 603.66 184.45 596.60 175.65
  Q 581.95 157.39 584.88 133.74
  Q 588.20 106.87 596.02 85.25
  Q 604.96 60.55 613.85 35.81
  Q 619.30 20.63 622.84 0.00
  Z"
/>
<path fill="#e37225" d="
  M 539.56 248.56
  L 537.72 250.61
  L 533.46 252.43
  Q 524.45 255.10 516.45 252.03
  C 500.30 245.81 491.33 224.93 488.41 208.85
  C 486.60 198.92 486.90 185.40 487.79 175.25
  C 489.21 159.22 492.11 141.94 495.84 124.22
  Q 502.27 93.63 504.96 64.64
  Q 506.56 47.40 503.50 29.33
  C 502.59 23.94 500.81 19.34 498.24 14.76
  Q 492.62 4.73 480.24 3.38
  C 490.76 -1.20 502.89 -0.66 510.65 7.88
  C 517.39 15.31 519.78 27.42 520.31 37.50
  C 522.15 72.43 511.73 106.47 504.59 140.26
  Q 499.15 166.02 498.61 189.00
  C 498.20 206.82 501.78 221.85 512.37 235.82
  Q 522.51 249.21 539.56 248.56
  Z"
/>
<path fill="#dd3b31" d="
  M 180.54 83.91
  L 163.59 120.78
  Q 162.93 118.41 164.11 115.26
  Q 168.29 104.05 171.01 91.50
  C 172.95 82.56 173.39 75.00 172.85 66.14
  C 171.87 50.14 162.66 30.11 144.49 29.37
  C 134.68 28.97 126.63 32.18 116.76 36.77
  Q 105.81 41.85 95.60 48.36
  Q 82.39 56.78 69.03 64.97
  C 63.78 68.19 56.82 71.88 51.99 73.36
  Q 32.48 79.34 19.21 65.54
  Q 7.41 53.26 0.00 35.07
  L 0.00 3.50
  Q 0.19 3.54 0.37 3.60
  Q 0.76 3.71 0.90 4.09
  Q 8.68 24.66 20.38 40.35
  Q 22.90 43.74 26.90 46.91
  C 39.40 56.84 51.99 54.43 65.57 47.63
  C 74.43 43.19 82.16 38.99 91.55 33.34
  C 108.80 22.96 127.42 11.72 147.34 5.82
  Q 157.20 2.91 163.92 3.56
  C 187.33 5.83 191.59 34.33 188.24 53.12
  Q 185.97 65.87 184.57 69.51
  Q 181.90 76.43 180.54 83.91
  Z"
/>
<path fill="#dd3b31" d="
  M 480.24 3.38
  Q 492.62 4.73 498.24 14.76
  C 500.81 19.34 502.59 23.94 503.50 29.33
  Q 506.56 47.40 504.96 64.64
  Q 502.27 93.63 495.84 124.22
  C 492.11 141.94 489.21 159.22 487.79 175.25
  C 486.90 185.40 486.60 198.92 488.41 208.85
  C 491.33 224.93 500.30 245.81 516.45 252.03
  Q 524.45 255.10 533.46 252.43
  Q 526.20 257.21 520.48 258.87
  C 498.14 265.37 483.68 240.20 478.43 222.71
  Q 476.05 214.76 475.40 203.01
  Q 474.08 179.06 477.84 155.26
  C 482.76 124.11 488.98 91.92 489.55 61.38
  Q 489.78 48.97 487.75 36.75
  Q 486.58 29.70 483.11 21.87
  Q 476.94 7.96 460.53 7.58
  Q 470.83 3.60 480.24 3.38
  Z"
/>
<path fill="#1d6e83" d="
  M 460.53 7.58
  Q 476.94 7.96 483.11 21.87
  Q 486.58 29.70 487.75 36.75
  Q 489.78 48.97 489.55 61.38
  C 488.98 91.92 482.76 124.11 477.84 155.26
  Q 474.08 179.06 475.40 203.01
  Q 476.05 214.76 478.43 222.71
  C 483.68 240.20 498.14 265.37 520.48 258.87
  Q 526.20 257.21 533.46 252.43
  L 537.72 250.61
  Q 545.65 248.98 551.67 252.31
  Q 561.13 257.54 569.02 267.01
  Q 591.69 294.24 613.81 321.93
  Q 621.81 331.94 625.00 336.42
  C 625.88 337.66 625.79 338.82 626.00 340.26
  L 626.00 371.61
  L 625.75 372.29
  Q 625.50 372.95 625.10 372.37
  Q 601.12 337.64 576.04 303.70
  Q 564.98 288.73 552.95 274.55
  C 546.87 267.37 537.99 258.97 527.95 258.91
  C 520.10 258.87 514.01 265.55 507.84 267.81
  C 488.60 274.87 473.67 253.80 467.45 238.73
  Q 465.04 232.89 463.42 225.02
  C 460.21 209.43 460.39 192.96 461.80 176.25
  Q 463.51 155.85 467.86 128.87
  C 471.93 103.68 474.30 78.37 472.19 52.51
  C 471.16 39.97 466.98 24.60 456.38 17.79
  Q 448.58 12.79 437.48 13.94
  Q 442.95 10.91 447.15 9.95
  L 460.53 7.58
  Z"
/>
<path fill="#2d9ea4" d="
  M 437.48 13.94
  Q 448.58 12.79 456.38 17.79
  C 466.98 24.60 471.16 39.97 472.19 52.51
  C 474.30 78.37 471.93 103.68 467.86 128.87
  Q 463.51 155.85 461.80 176.25
  C 460.39 192.96 460.21 209.43 463.42 225.02
  Q 465.04 232.89 467.45 238.73
  C 473.67 253.80 488.60 274.87 507.84 267.81
  C 514.01 265.55 520.10 258.87 527.95 258.91
  C 537.99 258.97 546.87 267.37 552.95 274.55
  Q 564.98 288.73 576.04 303.70
  Q 601.12 337.64 625.10 372.37
  Q 625.50 372.95 625.75 372.29
  L 626.00 371.61
  L 626.00 415.89
  Q 615.69 402.73 610.00 394.27
  Q 585.00 357.11 556.97 310.74
  C 549.49 298.37 522.01 261.93 503.63 273.84
  C 494.01 280.07 486.99 285.32 476.29 280.89
  C 462.13 275.03 455.05 260.38 450.34 246.53
  Q 448.02 239.69 447.03 232.15
  Q 444.82 215.25 445.22 201.99
  C 445.80 183.32 448.42 160.89 451.30 140.35
  Q 456.35 104.33 454.75 69.76
  Q 454.26 59.21 450.85 48.59
  C 445.45 31.71 434.65 22.14 416.06 25.44
  Q 409.69 26.57 402.88 28.90
  Q 414.11 21.21 425.35 17.61
  Q 428.40 16.62 437.48 13.94
  Z"
/>
<path fill="#1d6e83" d="
  M 163.59 120.78
  L 158.30 133.58
  L 146.96 165.29
  L 140.40 185.27
  Q 134.78 202.22 133.95 215.76
  Q 133.24 227.35 134.41 232.86
  C 138.08 250.16 149.13 262.32 168.16 257.99
  Q 173.88 256.69 178.23 254.22
  Q 197.23 243.48 214.47 225.96
  C 226.02 214.22 236.56 203.86 249.38 190.97
  Q 271.38 168.85 295.32 148.82
  Q 302.25 143.02 311.24 137.72
  C 323.25 130.64 340.29 128.05 349.85 140.66
  C 357.81 151.15 360.02 166.97 360.28 180.01
  Q 360.71 201.63 357.06 222.90
  C 353.30 244.77 348.58 267.65 347.59 289.25
  C 346.72 308.07 349.30 331.44 362.67 346.07
  C 372.90 357.28 388.63 361.71 403.03 356.03
  C 413.51 351.89 422.13 346.58 433.65 341.95
  Q 437.47 340.42 440.68 339.67
  C 462.88 334.48 481.16 354.00 491.18 370.82
  Q 494.64 376.65 500.28 388.62
  Q 506.80 402.48 511.81 417.00
  L 499.23 417.00
  Q 492.55 399.90 479.52 376.94
  C 473.18 365.76 465.06 355.14 453.06 350.93
  C 428.79 342.43 407.03 361.73 385.41 368.78
  C 369.00 374.13 352.87 370.95 341.11 358.22
  Q 335.42 352.05 332.83 344.89
  C 326.28 326.81 326.70 306.32 329.67 287.07
  C 331.24 276.89 334.54 259.98 337.23 246.50
  C 341.57 224.81 348.07 176.74 327.71 160.82
  C 311.64 148.25 291.77 162.49 280.08 173.84
  C 254.11 199.08 229.89 227.11 205.21 254.19
  C 192.51 268.12 163.85 298.16 142.70 283.37
  C 124.89 270.92 126.38 244.41 129.98 225.84
  Q 131.69 217.01 133.53 208.20
  Q 134.12 205.36 135.56 200.42
  Q 136.69 196.55 137.51 192.60
  Q 139.08 184.98 140.33 181.02
  Q 144.03 169.24 147.86 157.50
  Q 151.66 145.83 153.28 138.28
  Q 156.39 123.77 157.42 109.75
  C 158.96 88.66 149.30 49.11 119.00 57.11
  Q 107.33 60.19 96.98 66.44
  Q 80.64 76.32 64.36 86.30
  C 55.62 91.65 44.93 97.16 34.44 96.34
  C 23.28 95.46 13.13 86.50 7.11 77.36
  Q 3.62 72.06 0.00 66.63
  L 0.00 35.07
  Q 7.41 53.26 19.21 65.54
  Q 32.48 79.34 51.99 73.36
  C 56.82 71.88 63.78 68.19 69.03 64.97
  Q 82.39 56.78 95.60 48.36
  Q 105.81 41.85 116.76 36.77
  C 126.63 32.18 134.68 28.97 144.49 29.37
  C 162.66 30.11 171.87 50.14 172.85 66.14
  C 173.39 75.00 172.95 82.56 171.01 91.50
  Q 168.29 104.05 164.11 115.26
  Q 162.93 118.41 163.59 120.78
  Z"
/>
<path fill="#ebaf00" d="
  M 626.00 53.88
  L 626.00 167.81
  Q 614.97 157.86 611.23 144.07
  Q 609.14 136.35 609.74 124.24
  Q 610.77 103.24 616.90 82.97
  Q 622.28 65.15 624.49 59.01
  Q 625.88 55.12 626.00 53.88
  Z"
/>
<path fill="#2d9ea4" d="
  M 499.23 417.00
  L 487.55 417.00
  Q 482.31 404.72 471.48 385.73
  C 464.56 373.59 454.50 361.90 440.49 359.54
  Q 427.93 357.43 415.82 361.45
  Q 402.18 365.98 397.15 368.87
  Q 378.24 379.73 361.26 383.66
  Q 344.51 387.55 329.97 379.21
  C 300.96 362.56 306.72 320.44 312.33 293.01
  Q 315.82 275.98 319.50 259.01
  C 323.39 241.05 326.82 195.37 307.20 182.91
  C 289.75 171.83 270.06 196.30 259.77 207.14
  C 256.17 210.94 252.44 216.07 248.44 220.31
  Q 246.63 222.22 244.52 225.01
  C 241.93 228.42 239.01 230.97 236.51 234.66
  Q 234.32 237.88 231.10 241.33
  C 227.00 245.71 223.41 251.71 219.59 256.21
  C 215.17 261.43 210.91 266.81 206.22 271.70
  C 198.04 280.20 190.09 289.32 181.30 296.97
  C 171.68 305.32 158.10 317.07 144.13 314.63
  Q 137.97 313.55 133.89 308.81
  C 129.28 303.44 125.37 295.02 123.58 287.85
  Q 121.06 277.78 121.46 267.32
  C 121.64 262.41 121.54 258.03 122.07 254.01
  Q 124.34 236.97 128.34 220.27
  Q 130.63 210.67 132.21 202.61
  C 134.85 189.11 137.75 175.89 140.20 160.41
  C 143.86 137.35 143.89 113.20 128.66 94.16
  C 126.03 90.87 121.73 87.18 118.31 85.43
  C 103.46 77.82 89.94 86.26 77.18 95.18
  C 63.65 104.64 43.67 121.42 25.81 116.99
  Q 14.49 114.19 6.97 105.00
  Q 2.12 99.08 0.00 96.92
  L 0.00 66.63
  Q 3.62 72.06 7.11 77.36
  C 13.13 86.50 23.28 95.46 34.44 96.34
  C 44.93 97.16 55.62 91.65 64.36 86.30
  Q 80.64 76.32 96.98 66.44
  Q 107.33 60.19 119.00 57.11
  C 149.30 49.11 158.96 88.66 157.42 109.75
  Q 156.39 123.77 153.28 138.28
  Q 151.66 145.83 147.86 157.50
  Q 144.03 169.24 140.33 181.02
  Q 139.08 184.98 137.51 192.60
  Q 136.69 196.55 135.56 200.42
  Q 134.12 205.36 133.53 208.20
  Q 131.69 217.01 129.98 225.84
  C 126.38 244.41 124.89 270.92 142.70 283.37
  C 163.85 298.16 192.51 268.12 205.21 254.19
  C 229.89 227.11 254.11 199.08 280.08 173.84
  C 291.77 162.49 311.64 148.25 327.71 160.82
  C 348.07 176.74 341.57 224.81 337.23 246.50
  C 334.54 259.98 331.24 276.89 329.67 287.07
  C 326.70 306.32 326.28 326.81 332.83 344.89
  Q 335.42 352.05 341.11 358.22
  C 352.87 370.95 369.00 374.13 385.41 368.78
  C 407.03 361.73 428.79 342.43 453.06 350.93
  C 465.06 355.14 473.18 365.76 479.52 376.94
  Q 492.55 399.90 499.23 417.00
  Z"
/>
<path fill="#ebaf00" d="
  M 563.67 417.00
  L 542.08 417.00
  C 532.56 397.10 524.07 377.57 512.72 357.72
  C 504.99 344.19 494.95 330.05 481.24 322.21
  Q 473.76 317.94 467.73 317.53
  C 455.19 316.67 447.43 326.66 436.22 330.13
  C 418.26 335.70 407.08 325.96 398.61 311.04
  C 388.46 293.18 386.88 271.51 388.00 250.75
  C 389.77 218.09 396.76 182.92 398.16 153.64
  C 398.99 136.10 397.82 114.56 389.19 98.80
  C 374.56 72.10 341.92 88.72 324.49 101.00
  C 297.65 119.93 272.51 140.93 246.97 161.54
  C 237.11 169.50 227.16 176.71 217.03 184.01
  C 204.51 193.05 182.90 206.11 166.65 202.24
  C 153.55 199.13 147.27 184.45 147.35 171.75
  Q 147.36 170.12 148.61 165.40
  Q 148.63 165.34 148.57 165.40
  Q 148.55 165.41 148.54 165.43
  Q 148.32 165.61 148.32 165.62
  Q 148.40 166.45 147.46 166.60
  Q 147.04 166.67 147.02 166.25
  L 146.96 165.29
  L 158.30 133.58
  Q 158.20 137.48 157.50 144.51
  C 156.73 152.23 158.77 160.81 163.08 167.27
  C 177.18 188.35 209.01 172.63 225.60 161.61
  C 240.88 151.46 255.59 141.09 270.44 129.69
  Q 302.37 105.19 335.37 82.15
  C 350.56 71.55 380.03 54.72 397.93 65.72
  C 406.01 70.68 411.41 80.95 413.52 90.00
  C 420.63 120.45 416.20 152.94 412.26 183.66
  Q 410.55 196.93 408.56 217.00
  Q 405.93 243.36 409.13 267.14
  Q 410.65 278.38 414.01 286.44
  C 419.99 300.77 432.70 320.46 451.21 316.35
  C 459.18 314.59 465.15 307.61 473.08 305.20
  C 483.39 302.05 492.12 308.19 499.01 315.24
  Q 517.95 334.64 531.85 357.92
  Q 543.10 376.75 563.67 417.00
  Z"
/>
<path fill="#53b8b4" d="
  M 487.55 417.00
  L 472.93 417.00
  Q 464.85 397.70 454.57 384.45
  Q 446.23 373.71 433.18 371.05
  C 421.98 368.78 406.98 372.52 395.99 376.72
  Q 376.09 384.34 356.16 391.80
  Q 337.70 398.71 320.77 398.36
  Q 313.49 398.21 306.91 394.38
  C 283.47 380.78 286.68 339.61 291.35 317.85
  Q 294.13 304.92 299.55 281.75
  Q 305.42 256.63 302.35 233.03
  C 300.27 217.06 292.27 200.47 273.20 204.98
  C 260.40 208.00 249.10 222.60 241.09 232.13
  C 236.42 237.70 232.17 244.40 227.47 250.44
  Q 227.23 250.75 227.45 251.08
  Q 227.55 251.22 227.74 251.25
  Q 225.72 253.09 223.58 254.79
  Q 221.01 256.83 219.55 258.39
  Q 214.28 264.05 209.90 270.57
  Q 193.46 285.14 181.71 304.46
  L 157.21 333.24
  Q 152.87 338.57 147.15 342.73
  Q 135.57 345.21 127.07 336.63
  C 118.55 328.03 114.34 315.03 113.51 303.25
  Q 112.21 285.05 114.92 264.24
  Q 118.56 236.24 123.08 208.37
  C 127.62 180.38 130.51 145.91 112.29 121.70
  Q 99.44 104.63 79.82 109.79
  C 62.61 114.31 52.35 129.82 36.67 136.21
  Q 15.60 144.79 0.00 124.65
  L 0.00 96.92
  Q 2.12 99.08 6.97 105.00
  Q 14.49 114.19 25.81 116.99
  C 43.67 121.42 63.65 104.64 77.18 95.18
  C 89.94 86.26 103.46 77.82 118.31 85.43
  C 121.73 87.18 126.03 90.87 128.66 94.16
  C 143.89 113.20 143.86 137.35 140.20 160.41
  C 137.75 175.89 134.85 189.11 132.21 202.61
  Q 130.63 210.67 128.34 220.27
  Q 124.34 236.97 122.07 254.01
  C 121.54 258.03 121.64 262.41 121.46 267.32
  Q 121.06 277.78 123.58 287.85
  C 125.37 295.02 129.28 303.44 133.89 308.81
  Q 137.97 313.55 144.13 314.63
  C 158.10 317.07 171.68 305.32 181.30 296.97
  C 190.09 289.32 198.04 280.20 206.22 271.70
  C 210.91 266.81 215.17 261.43 219.59 256.21
  C 223.41 251.71 227.00 245.71 231.10 241.33
  Q 234.32 237.88 236.51 234.66
  C 239.01 230.97 241.93 228.42 244.52 225.01
  Q 246.63 222.22 248.44 220.31
  C 252.44 216.07 256.17 210.94 259.77 207.14
  C 270.06 196.30 289.75 171.83 307.20 182.91
  C 326.82 195.37 323.39 241.05 319.50 259.01
  Q 315.82 275.98 312.33 293.01
  C 306.72 320.44 300.96 362.56 329.97 379.21
  Q 344.51 387.55 361.26 383.66
  Q 378.24 379.73 397.15 368.87
  Q 402.18 365.98 415.82 361.45
  Q 427.93 357.43 440.49 359.54
  C 454.50 361.90 464.56 373.59 471.48 385.73
  Q 482.31 404.72 487.55 417.00
  Z"
/>
<path fill="#e37225" d="
  M 542.08 417.00
  L 525.28 417.00
  Q 517.89 398.22 511.05 382.97
  C 501.63 361.99 475.22 318.06 445.72 331.48
  Q 434.41 336.63 423.13 341.88
  Q 415.04 345.65 406.57 345.12
  C 382.39 343.62 370.01 315.11 368.37 294.48
  C 365.97 264.20 371.36 234.86 376.00 205.11
  C 377.66 194.47 378.33 184.09 379.14 173.50
  Q 380.59 154.30 376.87 135.42
  C 374.90 125.39 369.65 115.04 360.48 110.28
  C 345.18 102.35 326.84 112.34 313.94 121.70
  Q 289.88 139.17 271.46 155.70
  C 258.26 167.55 245.48 178.55 232.06 191.44
  C 217.73 205.21 201.75 218.22 183.45 226.39
  Q 175.15 230.09 168.50 230.47
  C 149.05 231.58 139.44 214.60 139.92 197.26
  Q 140.09 191.51 140.40 185.27
  L 146.96 165.29
  L 147.02 166.25
  Q 147.04 166.67 147.46 166.60
  Q 148.40 166.45 148.32 165.62
  Q 148.32 165.61 148.54 165.43
  Q 148.55 165.41 148.57 165.40
  Q 148.63 165.34 148.61 165.40
  Q 147.36 170.12 147.35 171.75
  C 147.27 184.45 153.55 199.13 166.65 202.24
  C 182.90 206.11 204.51 193.05 217.03 184.01
  C 227.16 176.71 237.11 169.50 246.97 161.54
  C 272.51 140.93 297.65 119.93 324.49 101.00
  C 341.92 88.72 374.56 72.10 389.19 98.80
  C 397.82 114.56 398.99 136.10 398.16 153.64
  C 396.76 182.92 389.77 218.09 388.00 250.75
  C 386.88 271.51 388.46 293.18 398.61 311.04
  C 407.08 325.96 418.26 335.70 436.22 330.13
  C 447.43 326.66 455.19 316.67 467.73 317.53
  Q 473.76 317.94 481.24 322.21
  C 494.95 330.05 504.99 344.19 512.72 357.72
  C 524.07 377.57 532.56 397.10 542.08 417.00
  Z"
/>
<path fill="#dd3b31" d="
  M 525.28 417.00
  L 511.81 417.00
  Q 506.80 402.48 500.28 388.62
  Q 494.64 376.65 491.18 370.82
  C 481.16 354.00 462.88 334.48 440.68 339.67
  Q 437.47 340.42 433.65 341.95
  C 422.13 346.58 413.51 351.89 403.03 356.03
  C 388.63 361.71 372.90 357.28 362.67 346.07
  C 349.30 331.44 346.72 308.07 347.59 289.25
  C 348.58 267.65 353.30 244.77 357.06 222.90
  Q 360.71 201.63 360.28 180.01
  C 360.02 166.97 357.81 151.15 349.85 140.66
  C 340.29 128.05 323.25 130.64 311.24 137.72
  Q 302.25 143.02 295.32 148.82
  Q 271.38 168.85 249.38 190.97
  C 236.56 203.86 226.02 214.22 214.47 225.96
  Q 197.23 243.48 178.23 254.22
  Q 173.88 256.69 168.16 257.99
  C 149.13 262.32 138.08 250.16 134.41 232.86
  Q 133.24 227.35 133.95 215.76
  Q 134.78 202.22 140.40 185.27
  Q 140.09 191.51 139.92 197.26
  C 139.44 214.60 149.05 231.58 168.50 230.47
  Q 175.15 230.09 183.45 226.39
  C 201.75 218.22 217.73 205.21 232.06 191.44
  C 245.48 178.55 258.26 167.55 271.46 155.70
  Q 289.88 139.17 313.94 121.70
  C 326.84 112.34 345.18 102.35 360.48 110.28
  C 369.65 115.04 374.90 125.39 376.87 135.42
  Q 380.59 154.30 379.14 173.50
  C 378.33 184.09 377.66 194.47 376.00 205.11
  C 371.36 234.86 365.97 264.20 368.37 294.48
  C 370.01 315.11 382.39 343.62 406.57 345.12
  Q 415.04 345.65 423.13 341.88
  Q 434.41 336.63 445.72 331.48
  C 475.22 318.06 501.63 361.99 511.05 382.97
  Q 517.89 398.22 525.28 417.00
  Z"
/>
<path fill="#f5dbab" d="
  M 147.15 342.73
  L 123.96 366.80
  Q 108.33 354.77 104.49 335.22
  Q 100.90 316.91 102.15 298.24
  C 104.01 270.76 107.31 243.46 109.30 215.99
  C 111.17 190.23 109.27 155.78 86.95 138.07
  C 75.35 128.86 61.19 130.82 49.81 139.32
  C 35.29 150.18 19.74 167.82 0.00 154.03
  L 0.00 124.65
  Q 15.60 144.79 36.67 136.21
  C 52.35 129.82 62.61 114.31 79.82 109.79
  Q 99.44 104.63 112.29 121.70
  C 130.51 145.91 127.62 180.38 123.08 208.37
  Q 118.56 236.24 114.92 264.24
  Q 112.21 285.05 113.51 303.25
  C 114.34 315.03 118.55 328.03 127.07 336.63
  Q 135.57 345.21 147.15 342.73
  Z"
/>
<path fill="#ebaf00" d="
  M 123.96 366.80
  L 116.11 375.46
  L 103.68 384.65
  Q 94.96 374.96 91.19 362.72
  Q 88.95 355.44 87.62 343.07
  C 85.26 320.99 88.15 298.41 89.44 276.52
  C 90.31 261.53 91.73 246.25 91.84 231.50
  C 92.03 206.48 88.78 176.61 68.44 159.95
  Q 63.28 155.73 57.55 154.36
  Q 47.31 151.92 38.13 156.54
  C 24.89 163.20 16.33 178.54 0.00 178.31
  L 0.00 154.03
  C 19.74 167.82 35.29 150.18 49.81 139.32
  C 61.19 130.82 75.35 128.86 86.95 138.07
  C 109.27 155.78 111.17 190.23 109.30 215.99
  C 107.31 243.46 104.01 270.76 102.15 298.24
  Q 100.90 316.91 104.49 335.22
  Q 108.33 354.77 123.96 366.80
  Z"
/>
<path fill="#e37225" d="
  M 103.68 384.65
  L 82.11 399.69
  Q 77.43 393.84 76.32 391.42
  C 66.68 370.41 67.00 347.61 68.27 325.02
  Q 69.84 297.04 71.56 269.07
  C 72.68 250.97 72.54 233.16 68.74 214.26
  C 66.35 202.42 58.99 185.98 48.44 178.25
  C 30.88 165.38 14.49 175.24 0.83 188.04
  Q 0.83 187.49 0.00 188.49
  L 0.00 178.31
  C 16.33 178.54 24.89 163.20 38.13 156.54
  Q 47.31 151.92 57.55 154.36
  Q 63.28 155.73 68.44 159.95
  C 88.78 176.61 92.03 206.48 91.84 231.50
  C 91.73 246.25 90.31 261.53 89.44 276.52
  C 88.15 298.41 85.26 320.99 87.62 343.07
  Q 88.95 355.44 91.19 362.72
  Q 94.96 374.96 103.68 384.65
  Z"
/>
<path fill="#dd3b31" d="
  M 82.11 399.69
  Q 78.51 401.87 77.01 404.29
  L 62.54 410.00
  Q 59.76 409.34 59.07 408.41
  Q 50.77 397.39 48.23 383.74
  C 44.90 365.89 45.39 347.41 46.72 329.39
  Q 48.96 299.35 49.98 269.25
  C 50.83 244.44 47.95 209.92 26.01 193.50
  Q 15.02 185.29 1.30 188.57
  Q 0.97 188.65 0.85 188.33
  Q 0.80 188.20 0.83 188.04
  C 14.49 175.24 30.88 165.38 48.44 178.25
  C 58.99 185.98 66.35 202.42 68.74 214.26
  C 72.54 233.16 72.68 250.97 71.56 269.07
  Q 69.84 297.04 68.27 325.02
  C 67.00 347.61 66.68 370.41 76.32 391.42
  Q 77.43 393.84 82.11 399.69
  Z"
/>
<path fill="#1d6e83" d="
  M 0.83 188.04
  Q 0.80 188.20 0.85 188.33
  Q 0.97 188.65 1.30 188.57
  Q 15.02 185.29 26.01 193.50
  C 47.95 209.92 50.83 244.44 49.98 269.25
  Q 48.96 299.35 46.72 329.39
  C 45.39 347.41 44.90 365.89 48.23 383.74
  Q 50.77 397.39 59.07 408.41
  Q 59.76 409.34 62.54 410.00
  L 42.44 417.00
  L 40.73 417.00
  Q 29.26 406.73 25.73 392.74
  C 20.62 372.51 21.71 350.57 23.44 328.75
  Q 24.44 316.08 26.19 286.00
  Q 27.11 269.99 25.31 254.14
  C 23.67 239.65 19.61 227.61 11.74 216.01
  Q 7.13 209.23 0.00 204.61
  L 0.00 188.49
  Q 0.83 187.49 0.83 188.04
  Z"
/>
<path fill="#f5dbab" d="
  M 472.93 417.00
  L 455.95 417.00
  Q 449.58 405.05 447.14 401.81
  C 436.52 387.69 423.79 380.34 405.52 383.89
  C 376.27 389.57 350.23 405.42 321.13 411.62
  C 305.88 414.87 288.68 414.95 278.15 401.03
  C 270.59 391.06 267.33 375.99 269.51 363.74
  C 274.50 335.79 282.62 300.57 284.11 268.25
  C 284.65 256.60 283.50 237.70 274.30 230.17
  C 265.95 223.34 253.98 225.03 246.05 231.80
  Q 237.13 239.42 230.13 249.21
  L 227.74 251.25
  Q 227.55 251.22 227.45 251.08
  Q 227.23 250.75 227.47 250.44
  C 232.17 244.40 236.42 237.70 241.09 232.13
  C 249.10 222.60 260.40 208.00 273.20 204.98
  C 292.27 200.47 300.27 217.06 302.35 233.03
  Q 305.42 256.63 299.55 281.75
  Q 294.13 304.92 291.35 317.85
  C 286.68 339.61 283.47 380.78 306.91 394.38
  Q 313.49 398.21 320.77 398.36
  Q 337.70 398.71 356.16 391.80
  Q 376.09 384.34 395.99 376.72
  C 406.98 372.52 421.98 368.78 433.18 371.05
  Q 446.23 373.71 454.57 384.45
  Q 464.85 397.70 472.93 417.00
  Z"
/>
<path fill="#2d9ea4" d="
  M 0.00 204.61
  Q 7.13 209.23 11.74 216.01
  C 19.61 227.61 23.67 239.65 25.31 254.14
  Q 27.11 269.99 26.19 286.00
  Q 24.44 316.08 23.44 328.75
  C 21.71 350.57 20.62 372.51 25.73 392.74
  Q 29.26 406.73 40.73 417.00
  L 17.29 417.00
  Q 13.98 413.91 10.81 410.73
  Q 7.76 407.68 5.96 404.18
  Q 2.37 397.22 0.00 389.62
  L 0.00 305.38
  L 0.00 294.47
  L 0.00 271.89
  L 0.00 263.99
  L 0.00 204.61
  Z"
/>
<path fill="#ebaf00" d="
  M 455.95 417.00
  L 432.31 417.00
  Q 428.72 412.53 426.30 409.96
  C 408.44 391.01 383.58 399.70 361.83 408.13
  Q 350.35 412.58 338.91 417.00
  L 257.81 417.00
  Q 252.16 407.85 250.16 397.30
  C 248.59 389.01 250.10 380.40 251.84 372.01
  C 257.10 346.73 262.67 321.23 265.13 295.50
  C 266.41 282.19 267.28 254.93 251.42 248.13
  Q 240.76 243.56 230.13 249.21
  Q 237.13 239.42 246.05 231.80
  C 253.98 225.03 265.95 223.34 274.30 230.17
  C 283.50 237.70 284.65 256.60 284.11 268.25
  C 282.62 300.57 274.50 335.79 269.51 363.74
  C 267.33 375.99 270.59 391.06 278.15 401.03
  C 288.68 414.95 305.88 414.87 321.13 411.62
  C 350.23 405.42 376.27 389.57 405.52 383.89
  C 423.79 380.34 436.52 387.69 447.14 401.81
  Q 449.58 405.05 455.95 417.00
  Z"
/>
<path fill="#f5dbab" d="
  M 626.00 253.98
  L 626.00 271.54
  Q 615.19 261.48 605.79 251.22
  C 598.13 242.86 587.72 233.31 575.51 235.18
  Q 572.78 235.59 569.98 236.03
  C 578.35 231.87 586.61 227.85 595.37 230.20
  Q 602.73 232.17 608.53 236.95
  Q 617.43 244.29 626.00 253.98
  Z"
/>
<path fill="#ebaf00" d="
  M 626.00 271.54
  L 626.00 291.37
  Q 621.28 284.36 614.89 277.83
  C 605.61 268.35 598.20 259.86 589.47 251.23
  C 582.13 243.97 575.91 239.98 566.27 238.56
  Q 565.32 238.42 564.54 238.82
  Q 564.88 238.36 564.82 238.01
  Q 564.74 237.51 564.04 237.64
  L 569.98 236.03
  Q 572.78 235.59 575.51 235.18
  C 587.72 233.31 598.13 242.86 605.79 251.22
  Q 615.19 261.48 626.00 271.54
  Z"
/>
<path fill="#e37225" d="
  M 626.00 291.37
  L 626.00 312.39
  L 625.69 310.39
  Q 625.61 309.90 625.27 309.52
  Q 602.35 284.13 579.62 258.57
  C 572.66 250.74 564.21 243.21 553.00 243.28
  L 564.54 238.82
  Q 565.32 238.42 566.27 238.56
  C 575.91 239.98 582.13 243.97 589.47 251.23
  C 598.20 259.86 605.61 268.35 614.89 277.83
  Q 621.28 284.36 626.00 291.37
  Z"
/>
<path fill="#dd3b31" d="
  M 553.00 243.28
  C 564.21 243.21 572.66 250.74 579.62 258.57
  Q 602.35 284.13 625.27 309.52
  Q 625.61 309.90 625.69 310.39
  L 626.00 312.39
  L 626.00 340.26
  C 625.79 338.82 625.88 337.66 625.00 336.42
  Q 621.81 331.94 613.81 321.93
  Q 591.69 294.24 569.02 267.01
  Q 561.13 257.54 551.67 252.31
  Q 545.65 248.98 537.72 250.61
  L 539.56 248.56
  L 549.46 244.06
  L 553.00 243.28
  Z"
/>
<path fill="#e37225" d="
  M 257.81 417.00
  L 231.45 417.00
  Q 230.45 406.89 232.89 394.15
  C 239.00 362.28 246.81 329.98 246.51 297.76
  Q 246.42 287.37 241.64 278.02
  C 235.15 265.31 221.37 264.57 209.90 270.57
  Q 214.28 264.05 219.55 258.39
  Q 221.01 256.83 223.58 254.79
  Q 225.72 253.09 227.74 251.25
  L 230.13 249.21
  Q 240.76 243.56 251.42 248.13
  C 267.28 254.93 266.41 282.19 265.13 295.50
  C 262.67 321.23 257.10 346.73 251.84 372.01
  C 250.10 380.40 248.59 389.01 250.16 397.30
  Q 252.16 407.85 257.81 417.00
  Z"
/>
<path fill="#ebaf00" d="
  M 0.00 263.99
  L 0.00 271.89
  L 0.00 263.99
  Z"
/>
<path fill="#dd3b31" d="
  M 231.45 417.00
  L 215.28 417.00
  Q 215.51 410.77 216.90 404.63
  C 223.89 373.75 234.15 343.76 226.45 311.73
  C 222.19 294.04 203.99 287.11 189.47 298.69
  Q 184.71 302.50 181.71 304.46
  Q 193.46 285.14 209.90 270.57
  C 221.37 264.57 235.15 265.31 241.64 278.02
  Q 246.42 287.37 246.51 297.76
  C 246.81 329.98 239.00 362.28 232.89 394.15
  Q 230.45 406.89 231.45 417.00
  Z"
/>
<path fill="#1d6e83" d="
  M 215.28 417.00
  L 209.69 417.00
  C 212.95 394.54 224.70 329.39 191.51 323.24
  C 178.64 320.85 168.58 326.81 158.10 333.79
  Q 157.95 333.89 157.76 333.88
  Q 157.63 333.88 157.50 333.87
  Q 157.24 333.86 157.34 333.62
  Q 157.43 333.42 157.21 333.24
  L 181.71 304.46
  Q 184.71 302.50 189.47 298.69
  C 203.99 287.11 222.19 294.04 226.45 311.73
  C 234.15 343.76 223.89 373.75 216.90 404.63
  Q 215.51 410.77 215.28 417.00
  Z"
/>
<path fill="#ebaf00" d="
  M 0.00 294.47
  L 0.00 305.38
  L 0.00 294.47
  Z"
/>
<path fill="#2d9ea4" d="
  M 209.69 417.00
  L 200.35 417.00
  C 200.71 398.65 200.54 373.89 184.82 361.19
  C 166.03 346.01 138.27 359.94 121.13 371.96
  Q 120.63 372.31 120.10 372.00
  Q 119.80 371.82 119.70 372.27
  Q 119.61 372.73 119.24 373.02
  L 116.11 375.46
  L 123.96 366.80
  L 147.15 342.73
  Q 152.87 338.57 157.21 333.24
  Q 157.43 333.42 157.34 333.62
  Q 157.24 333.86 157.50 333.87
  Q 157.63 333.88 157.76 333.88
  Q 157.95 333.89 158.10 333.79
  C 168.58 326.81 178.64 320.85 191.51 323.24
  C 224.70 329.39 212.95 394.54 209.69 417.00
  Z"
/>
<path fill="#53b8b4" d="
  M 200.35 417.00
  L 182.19 417.00
  Q 174.17 394.69 153.00 388.47
  Q 144.48 385.97 133.22 386.91
  Q 116.87 388.26 101.47 394.53
  Q 89.47 399.41 77.01 404.29
  Q 78.51 401.87 82.11 399.69
  L 103.68 384.65
  L 116.11 375.46
  L 119.24 373.02
  Q 119.61 372.73 119.70 372.27
  Q 119.80 371.82 120.10 372.00
  Q 120.63 372.31 121.13 371.96
  C 138.27 359.94 166.03 346.01 184.82 361.19
  C 200.54 373.89 200.71 398.65 200.35 417.00
  Z"
/>
<path fill="#f5dbab" d="
  M 182.19 417.00
  L 121.86 417.00
  Q 112.40 415.77 102.95 415.58
  C 96.06 415.45 88.53 416.47 81.25 417.00
  L 42.44 417.00
  L 62.54 410.00
  L 77.01 404.29
  Q 89.47 399.41 101.47 394.53
  Q 116.87 388.26 133.22 386.91
  Q 144.48 385.97 153.00 388.47
  Q 174.17 394.69 182.19 417.00
  Z"
/>
<path fill="#53b8b4" d="
  M 0.00 389.62
  Q 2.37 397.22 5.96 404.18
  Q 7.76 407.68 10.81 410.73
  Q 13.98 413.91 17.29 417.00
  L 0.00 417.00
  L 0.00 389.62
  Z"
/>
<path fill="#e37225" d="
  M 432.31 417.00
  L 338.91 417.00
  Q 350.35 412.58 361.83 408.13
  C 383.58 399.70 408.44 391.01 426.30 409.96
  Q 428.72 412.53 432.31 417.00
  Z"
/>
<path fill="#ebaf00" d="
  M 121.86 417.00
  L 81.25 417.00
  C 88.53 416.47 96.06 415.45 102.95 415.58
  Q 112.40 415.77 121.86 417.00
  Z"
/>
</svg>
